<svg xmlns="http://www.w3.org/2000/svg" viewBox="0 0 102.934 32">
  <defs>
    <style>
      .cls-1 {
        fill: #0db14b;
      }

      .cls-2 {
        fill: #f37021;
      }

      .cls-3 {
        fill: #0066b3;
      }

      .cls-4 {
        fill: #fff;
      }
    </style>
  </defs>
  <g id="Group_717" data-name="Group 717" transform="translate(-9870 1438)">
    <g id="Group_26" data-name="Group 26" transform="translate(9870 -1438)">
      <path id="Path_6" data-name="Path 6" class="cls-1" d="M111.759,15.4a6.664,6.664,0,0,0-6.215,4.462c-.064.127-.223.669-.223.669L101.4,37.583h9.02a6.758,6.758,0,0,0,6.47-5.259h0l3.888-16.892h-9.02Z" transform="translate(-69.081 -10.492)"/>
      <path id="Path_7" data-name="Path 7" class="cls-2" d="M59.753,0a6.635,6.635,0,0,0-6.375,4.845c-.064.223-.1.414-.159.637L47.1,32h9.02a6.622,6.622,0,0,0,6.406-5.036h0L68.773,0Z" transform="translate(-32.088)"/>
      <path id="Path_8" data-name="Path 8" class="cls-3" d="M10.359,15.4a6.686,6.686,0,0,0-6.311,4.749c-.032.064-.032.127-.064.191l-.159.606L0,37.583H9.243a6.519,6.519,0,0,0,6.056-4.4l.351-1.594,3.729-16.159h-9.02Z" transform="translate(0 -10.492)"/>
      <path id="Path_9" data-name="Path 9" class="cls-4" d="M16.368,32.732h-.159a2.914,2.914,0,0,0-1.817.669,3.022,3.022,0,0,0-1.02,1.4h0L11.3,43.792h.127a2.719,2.719,0,0,0,1.817-.7A2.768,2.768,0,0,0,14.3,41.433l.446-1.944h4.112a2.887,2.887,0,0,0,1.817-.7,2.768,2.768,0,0,0,1.052-1.657L21.754,37h-6.47l.414-1.849h5.578a2.914,2.914,0,0,0,1.817-.669,3.1,3.1,0,0,0,1.052-1.657l.032-.127Z" transform="translate(-7.698 -22.278)"/>
      <path id="Path_10" data-name="Path 10" class="cls-4" d="M73.625,33.342a1.9,1.9,0,0,0-1.371-.542h-7.9L61.8,43.892h.127a2.719,2.719,0,0,0,1.817-.7A2.768,2.768,0,0,0,64.8,41.533l.446-1.976h5.45a2.654,2.654,0,0,0,1.785-.51,3.505,3.505,0,0,0,1.116-1.817l.478-2.04a2.476,2.476,0,0,0,.064-.51A1.8,1.8,0,0,0,73.625,33.342ZM71.171,37.1H65.848l.446-1.849h5.323Z" transform="translate(-42.103 -22.346)"/>
      <path id="Path_11" data-name="Path 11" class="cls-4" d="M128.317,33.342a1.848,1.848,0,0,0-1.371-.542H118.6l-.032.064a2.461,2.461,0,0,0-.064.478,1.8,1.8,0,0,0,.51,1.339,1.9,1.9,0,0,0,1.371.542h1.753l-1.976,8.606h.127a2.719,2.719,0,0,0,1.817-.7,2.768,2.768,0,0,0,1.052-1.657l1.466-6.279h4.112l.032-.064a2.477,2.477,0,0,0,.064-.51A1.755,1.755,0,0,0,128.317,33.342Z" transform="translate(-80.731 -22.346)"/>
    </g>
    <g id="Group_27" data-name="Group 27" transform="translate(9919.18 -1414.733)">
      <path id="Path_12" data-name="Path 12" class="cls-4" d="M154.3,74.912a1.912,1.912,0,1,1,1.912,1.912,1.918,1.918,0,0,1-1.912-1.912m3.378,0a1.437,1.437,0,1,0-1.434,1.53,1.472,1.472,0,0,0,1.434-1.53m-2.2-1.084h.8c.51,0,.8.191.8.637,0,.382-.223.542-.574.574l.574.956h-.414l-.574-.924h-.255V76h-.351Zm.414.924h.351c.223,0,.446-.032.446-.319,0-.255-.223-.287-.446-.287h-.351Z" transform="translate(-154.3 -73)"/>
    </g>
    <g id="Group_341" data-name="Group 341" transform="translate(9928.95 -1426.661)">
      <path id="Path_13" data-name="Path 13" class="cls-4" d="M16.239,125.5a3.2,3.2,0,0,1-2.1.669A4.71,4.71,0,0,1,12,125.719l.446-1.147a3.248,3.248,0,0,0,1.626.414,1.823,1.823,0,0,0,1.147-.351,1.133,1.133,0,0,0,.446-.924c0-.542-.446-.988-1.371-1.4a5.627,5.627,0,0,1-1.466-.892,2.157,2.157,0,0,1-.733-1.626,2.283,2.283,0,0,1,.733-1.753,2.756,2.756,0,0,1,1.944-.637,3.689,3.689,0,0,1,1.912.446l-.414,1.084a3.051,3.051,0,0,0-1.466-.382,1.505,1.505,0,0,0-1.02.319,1.091,1.091,0,0,0-.382.861q0,.765,1.434,1.434a6.419,6.419,0,0,1,1.434.861,2.126,2.126,0,0,1,.7,1.626A2.2,2.2,0,0,1,16.239,125.5Z" transform="translate(-12 -116.763)"/>
      <path id="Path_14" data-name="Path 14" class="cls-4" d="M34.676,129.873a2.722,2.722,0,0,1-4.143,0,4.161,4.161,0,0,1,0-4.717,2.722,2.722,0,0,1,4.143,0,3.658,3.658,0,0,1,.733,2.359A3.72,3.72,0,0,1,34.676,129.873Zm-.956-4.048a1.33,1.33,0,0,0-2.231,0,3.782,3.782,0,0,0,0,3.315,1.295,1.295,0,0,0,2.231,0,3.782,3.782,0,0,0,0-3.315Z" transform="translate(-24.127 -121.395)"/>
      <path id="Path_15" data-name="Path 15" class="cls-4" d="M52.278,116.452c-.829,0-1.275.351-1.275,1.084v.8H52.31v.956H51v5.386H49.729v-5.386H48.9v-.956h.829v-.8a2.024,2.024,0,0,1,.669-1.626,2.424,2.424,0,0,1,1.626-.51,1.818,1.818,0,0,1,.414.032v1.02Z" transform="translate(-37.139 -115.4)"/>
      <path id="Path_16" data-name="Path 16" class="cls-4" d="M64.01,126.959a1.9,1.9,0,0,1-.8.127c-1.179,0-1.753-.606-1.753-1.849v-3.6H60.6v-.956h.861v-1.5l1.275-.382v1.849H64.01v.956H62.735v3.538c0,.542.287.8.861.8a1.018,1.018,0,0,0,.446-.1v1.116Z" transform="translate(-45.11 -117.716)"/>
      <path id="Path_17" data-name="Path 17" class="cls-4" d="M79.567,131.043H78.228l-1.147-4.048c-.064-.287-.127-.574-.191-.924h-.032c-.064.319-.127.637-.191.924l-1.147,4.048H74.18L72.3,124.7h1.275l1.084,4.207c.064.287.127.637.191.988h.032a6.541,6.541,0,0,1,.223-.988l1.147-4.207h1.211l1.147,4.207c.064.287.159.637.223.988H78.9a4.18,4.18,0,0,1,.191-.988l1.084-4.207h1.275Z" transform="translate(-53.082 -121.736)"/>
      <path id="Path_18" data-name="Path 18" class="cls-4" d="M107.236,130.315a5.056,5.056,0,0,1-2.295.446c-1.817,0-2.741-.669-2.741-2.008a1.765,1.765,0,0,1,1.179-1.721,7.953,7.953,0,0,1,2.614-.478v-.414c0-.733-.446-1.084-1.339-1.084a4.134,4.134,0,0,0-1.753.382l-.319-.892a5.574,5.574,0,0,1,2.231-.446c1.626,0,2.454.733,2.454,2.167v4.048Zm-1.211-2.9a6.261,6.261,0,0,0-1.785.255,1.075,1.075,0,0,0-.829,1.052c0,.733.51,1.084,1.5,1.084a2.86,2.86,0,0,0,1.084-.159v-2.231Z" transform="translate(-73.452 -121.327)"/>
      <path id="Path_19" data-name="Path 19" class="cls-4" d="M124.6,125.316a3.924,3.924,0,0,0-.637-.064,2.779,2.779,0,0,0-.988.159v5.259H121.7v-6.024a6.482,6.482,0,0,1,2.454-.446,4.728,4.728,0,0,1,.733.032Z" transform="translate(-86.736 -121.395)"/>
      <path id="Path_20" data-name="Path 20" class="cls-4" d="M138.214,127.483l-4.207.606a1.752,1.752,0,0,0,1.944,1.721,3.656,3.656,0,0,0,1.753-.382l.382.956a4.953,4.953,0,0,1-2.231.446,3.027,3.027,0,0,1-2.327-.892,3.432,3.432,0,0,1-.829-2.422,3.586,3.586,0,0,1,.765-2.39,2.615,2.615,0,0,1,2.1-.924,2.521,2.521,0,0,1,1.944.765,2.836,2.836,0,0,1,.7,2.04Zm-1.211-.7c0-1.116-.478-1.657-1.4-1.657a1.44,1.44,0,0,0-1.179.542,2.313,2.313,0,0,0-.478,1.53Z" transform="translate(-94.23 -121.395)"/>
    </g>
  </g>
</svg>
